<svg xmlns="http://www.w3.org/2000/svg" viewBox="0 0 128 128"><defs><linearGradient id="b" x2="0" y2="1"><stop stop-color="#fff4a8"/><stop offset="1" stop-color="#ffc85a"/></linearGradient></defs><circle cx="64" cy="66" r="43" fill="url(#b)" stroke="#c98248" stroke-width="5"/><path d="M34 69 15 58l10 25zM94 69l19-11-10 25z" fill="#ffd36a" stroke="#c98248" stroke-width="4" stroke-linejoin="round"/><circle cx="49" cy="60" r="5" fill="#563b4c"/><circle cx="79" cy="60" r="5" fill="#563b4c"/><path d="m58 70 6 5 6-5-6-4z" fill="#f39b64"/><ellipse cx="43" cy="72" rx="8" ry="4" fill="#f89db8" opacity=".7"/><ellipse cx="85" cy="72" rx="8" ry="4" fill="#f89db8" opacity=".7"/><path d="M48 105c-9 8-18 4-18-2s11-9 18-6m32 8c9 8 18 4 18-2s-11-9-18-6" fill="#f5a94a" stroke="#c98248" stroke-width="4" stroke-linecap="round"/></svg>
