<svg xmlns="http://www.w3.org/2000/svg" viewBox="0 0 128 128"><defs><linearGradient id="g" x2="0" y2="1"><stop stop-color="#f5ffd6"/><stop offset="1" stop-color="#bfe8a5"/></linearGradient></defs><path d="M64 31c-1-14 7-22 19-24-1 12-7 20-19 22-7-12-17-16-27-12 4 12 13 18 27 14z" fill="#86c96f" stroke="#4d8b58" stroke-width="4" stroke-linejoin="round"/><path d="M64 28v18" stroke="#65894d" stroke-width="5" stroke-linecap="round"/><path d="M27 70c0-22 16-34 37-34s37 12 37 34-14 39-37 39-37-17-37-39z" fill="url(#g)" stroke="#9a7c62" stroke-width="5"/><path d="M38 67c8-11 44-11 52 0v18c-9 12-43 12-52 0z" fill="#fff4dc" stroke="#c9a77f" stroke-width="4"/><circle cx="50" cy="75" r="4" fill="#624b58"/><circle cx="78" cy="75" r="4" fill="#624b58"/><path d="M58 84q6 5 12 0" fill="none" stroke="#bf718f" stroke-width="3" stroke-linecap="round"/><ellipse cx="43" cy="84" rx="7" ry="4" fill="#f4a7b8"/><ellipse cx="85" cy="84" rx="7" ry="4" fill="#f4a7b8"/></svg>
