<svg xmlns="http://www.w3.org/2000/svg" viewBox="0 0 256 25"><rect width="256" height="25" rx="12" fill="#ffe8f5"/><g stroke="#7b4d75" stroke-width="2" fill="none" stroke-linecap="round" stroke-linejoin="round"><g transform="translate(4 1)"><circle cx="12" cy="12" r="9" fill="#ffb7d5"/><path d="m8 12 3 3 6-7"/></g><g transform="translate(36 1)"><circle cx="12" cy="9" r="5" fill="#b9e6ff"/><path d="M4 22c1-7 15-7 16 0"/></g><g transform="translate(68 1)"><path d="m12 2 3 7 8 1-6 5 2 8-7-4-7 4 2-8-6-5 8-1z" fill="#ffd96e"/></g><g transform="translate(100 1)"><rect x="2" y="5" width="20" height="15" rx="3" fill="#fff"/><path d="m3 7 9 7 9-7"/></g><g transform="translate(132 1)"><path d="M2 7h8l3 3h9v11H2z" fill="#ffe37f"/></g><g transform="translate(164 1)"><circle cx="12" cy="12" r="9" fill="#b9efc8"/><path d="M8 12h8M12 8v8"/></g><g transform="translate(196 1)"><path d="M12 2c7 0 10 6 8 12-2 5-8 8-8 8s-6-3-8-8C2 8 5 2 12 2z" fill="#d8c4ff"/><circle cx="12" cy="11" r="3"/></g><g transform="translate(228 1)"><rect x="3" y="3" width="7" height="7" rx="2" fill="#ffb6c9"/><rect x="14" y="3" width="7" height="7" rx="2" fill="#b8e3ff"/><rect x="3" y="14" width="7" height="7" rx="2" fill="#ffe27d"/><rect x="14" y="14" width="7" height="7" rx="2" fill="#bde8ba"/></g></g></svg>
